<svg height="73" viewBox="0 0 73 73" width="73" xmlns="http://www.w3.org/2000/svg" xmlns:xlink="http://www.w3.org/1999/xlink"><linearGradient id="a" x1="72.723972%" x2="27.26947%" y1="9.240347%" y2="90.75311%"><stop offset=".3" stop-color="#3e863d"/><stop offset=".5" stop-color="#55934f"/><stop offset=".8" stop-color="#5aad45"/></linearGradient><linearGradient id="b" x1="3.994299%" x2="97.307411%" y1="80.099145%" y2="20.905776%"><stop offset=".57" stop-color="#3e863d"/><stop offset=".72" stop-color="#619857"/><stop offset="1" stop-color="#76ac64"/></linearGradient><linearGradient id="c" x1="0%" x2="100%" y1="49.999897%" y2="49.999897%"><stop offset=".16" stop-color="#6bbf47"/><stop offset=".38" stop-color="#79b461"/><stop offset=".47" stop-color="#75ac64"/><stop offset=".7" stop-color="#659e5a"/><stop offset=".9" stop-color="#3e863d"/></linearGradient><g fill="none" fill-rule="evenodd"><rect fill="#fff" fill-rule="nonzero" height="71" rx="14" stroke="#000" stroke-width="2" width="71" x="1" y="1"/><g transform="translate(9 25)"><path d="m54.8153499 7.90510158h.1693905c.1390519 0 .1655982-.09733634.1655982-.15422122 0-.14916478-.1023928-.14916478-.1592777-.14916478h-.1744469zm-.2060497-.47783296h.3754402c.1289391 0 .3817607 0 .3817607.28821671 0 .20099323-.128939.2427088-.2060496.26799097.1504289.01011286.1605417.10871332.1807675.24776523.0101128.08722348.0265462.23765238.0568848.28821671h-.2313318c-.0063205-.05056433-.0417156-.32866817-.0417156-.34383747-.0151693-.06194131-.0366591-.09227991-.1137697-.09227991h-.1908804v.43738149h-.2111061zm-.4512867.54356659c0 .45255079.3653274.81914222.8140858.81914222.4525508 0 .8178781-.37417608.8178781-.81914222 0-.45381489-.3703837-.81408577-.8191422-.81408577-.4424379 0-.8140858.35521444-.8140858.81282167zm1.7887134.00252822c0 .53598194-.4386456.97336343-.9733635.97336343-.5309255 0-.9733634-.43232505-.9733634-.97336343 0-.55115124.4525508-.97336343.9733634-.97336343.524605 0 .9720994.4234763.9720994.97336343z" fill="#689f63" fill-rule="nonzero"/><path d="m12.0009391 11.4465011c0-.2325959-.1226186-.4462302-.323359-.5618961l-5.3542573-3.08063209c-.09038375-.05309255-.19163883-.08090293-.29428443-.08469526h-.05536794c-.1026456.00379233-.20390068.03160271-.29580136.08469526l-5.35400451 3.08063209c-.1994763.1162979-.32386456.3299322-.32386456.5625282l.01175621 8.2976072c0 .1150339.05941309.2224831.16054176.279368.09860045.0606772.22248307.0606772.32108352 0l3.18302483-1.8228443c.20099323-.1195846.32361174-.3309436.32361174-.5612641v-3.8763883c0-.2313318.12261851-.4449661.32297968-.56l1.35512416-.7804605c.10062302-.0581489.21110609-.0869706.32361173-.0869706.1107359 0 .22374718.0285688.32158917.0868442l1.3544921.7802077c.20048758.1150339.32361174.3286682.32361174.56v3.8761354c0 .2300678.12426185.442438.32424379.5612642l3.18100227 1.8215801c.0998645.0594131.2241264.0594131.3236117 0 .0980948-.0568849.160289-.1643341.160289-.279368zm25.2654808 4.3202167c0 .0577698-.0307179.1112416-.080903.1398104l-1.8390248 1.0600813c-.0499323.0286952-.1116208.0286952-.1614266 0l-1.8392777-1.0600813c-.0505643-.0286952-.0809029-.082167-.0809029-.1398104v-2.1231964c0-.0578961.0303386-.1112415.0796388-.140316l1.8380135-1.061851c.0505644-.0290745.1125057-.0290745.16307 0l1.8392777 1.061851c.0505643.0290745.0809029.0824199.0809029.140316zm.4967945-15.72576069c-.1003702-.05587359-.222483-.05435666-.3215891.00341309-.0986005.05814899-.1595305.16433409-.1595305.27936795v8.21670429c0 .08090293-.0429797.15548533-.1130113.19593679-.0695259.04045147-.1561174.04045147-.2262754 0l-1.3412189-.77249661c-.1997292-.1155395-.4457246-.1155395-.6462122 0l-5.3560271 3.09112418c-.2001084.1150338-.3236118.3286681-.3236118.5587359v6.184018c0 .2313319.1235034.4437021.3236118.56l5.3560271 3.0932732c.1999819.1150338.4462302.1150338.6468442 0l5.3560271-3.0945373c.1997291-.116298.3236117-.3286682.3236117-.56v-15.41200902c0-.23461851-.1276749-.4504018-.3324605-.56505643zm17.835684 13.54669079c.1989707-.1155395.3214628-.328921.3214628-.5589888v-1.4987268c0-.2305734-.1226185-.4433228-.3219684-.559368l-5.3218962-3.08948078c-.2009932-.11629797-.4474943-.11629797-.6484876 0l-5.354763 3.09074488c-.2009932.116298-.3236117.3286682-.3236117.56v6.1814899c0 .2325959.1251467.4474943.32614.5625282l5.320632 3.0325959c.1959368.1125057.4361174.1137698.6345824.0037924l3.2184199-1.7887134c.1011286-.0568848.1655982-.164334.1655982-.280632s-.0619413-.2250113-.16307-.2818962l-5.3876298-3.092009c-.1011287-.0568849-.16307-.1643341-.16307-.2793679v-1.9391423c0-.1157923.0606772-.222483.1618059-.2801264l1.6762077-.9670429c.0998645-.0581489.222483-.0581489.3223476 0l1.6774718.9670429c.0998645.0568849.1618058.1643341.1618058.279368v1.5245146c0 .1150339.0619414.2224831.1618059.2806321.0998646.0568849.2237472.0568849.3236118-.0012641z" fill="#333"/><path d="m49.8738781 13.2984199c.0379233-.0223748.0854537-.0223748.1238826 0l1.0277201.5928668c.0384289.0222483.0619413.0632054.0619413.1074492v1.1869977c0 .0442438-.0235124.0852009-.0619413.1074492l-1.0277201.5928669c-.0384289.0223747-.0859593.0223747-.1238826 0l-1.027088-.5928669c-.0391874-.0222483-.0632054-.0632054-.0632054-.1074492v-1.1869977c0-.0442438.0227539-.0852009.0619413-.1074492z" fill="#689f63"/><g fill-rule="nonzero" transform="translate(14.5 8.5)"><path d="m5.89320014.08968833-5.55735032 3.20765613c-.20781522.11974574-.33587072.34134816-.33584982.58119438v6.41977626c-.00005709.2398559.12800812.4614751.33584982.5811944l5.55778796 3.2101361c.20782046.1196525.4636166.1196525.67143706 0l5.55676676-3.2101361c.207272-.1201818.33491-.3416003.3350329-.5811944v-6.41977626c-.0000812-.23994869-.1283396-.46157494-.3363458-.58119438l-5.55603738-3.20765613c-.20830798-.11958258-.46444203-.11958258-.67275 0" fill="url(#a)"/><path d="m.13771272 10.7059097c.05387482.0703398.12112171.129337.19787452.1735998l4.76719438 2.7536126.79409475.4564068c.11727266.067442.25213408.0980133.38702527.0877335.04465117-.0037342.08883023-.0118254.13190662-.0241581l5.86128114-10.73216851c-.0455317-.04894876-.098184-.09075197-.1561814-.1239998l-3.63885453-2.10131528-1.92351415-1.10672014c-.05463655-.03104882-.11320409-.05460145-.1741249-.07002342z" fill="url(#b)"/><path d="m6.16176913.00370541c-.09451006.00953937-.18596059.03883336-.26842311.08598292l-5.54153669 3.19849473 5.97550683 10.88379844c.08410337-.0119797.16514131-.0399266.23875068-.0823359l5.55735036-3.2101361c.1697804-.0982828.2882712-.2657062.3245001-.4585075l-6.09159977-10.40641379c-.04475418-.00889851-.09027354-.01338399-.13590379-.01339198-.0184784 0-.03695681.0008753-.05543521.00262588" fill="url(#c)"/></g></g></g></svg>